<?xml version="1.0" standalone="no"?>
<!DOCTYPE svg PUBLIC "-//W3C//DTD SVG 20010904//EN"
 "http://www.w3.org/TR/2001/REC-SVG-20010904/DTD/svg10.dtd">
<svg version="1.0" xmlns="http://www.w3.org/2000/svg"
 width="150.000000pt" height="150.000000pt" viewBox="0 0 150.000000 150.000000"
 preserveAspectRatio="xMidYMid meet">
<metadata>
Created by potrace 1.14, written by Peter Selinger 2001-2017
</metadata>
<g transform="translate(0.000000,150.000000) scale(0.100000,-0.100000)"
fill="#000000" stroke="none">
<path d="M0 750 l0 -749 750 -1 750 0 0 750 0 750 -270 0 c-231 0 -270 -2
-270 -15 0 -9 -6 -12 -15 -9 -8 4 -12 10 -9 15 3 5 -41 9 -100 9 -94 0 -106
-2 -107 -17 0 -16 -1 -16 -8 1 -5 14 -10 16 -15 8 -4 -7 -4 -16 -1 -22 3 -5 2
-10 -3 -10 -5 0 -12 9 -15 20 -5 20 -14 20 -346 20 l-341 0 0 -750z m610 660
c0 -13 -5 -17 -20 -13 -16 4 -18 9 -9 24 12 23 29 16 29 -11z m224 5 c3 -10
-1 -15 -13 -15 -10 0 -18 7 -18 15 0 8 6 15 13 15 6 0 14 -7 18 -15z m-114
-60 c10 -12 9 -16 -5 -21 -19 -8 -40 9 -31 25 10 15 21 14 36 -4z m230 -5 c0
-12 -7 -20 -17 -20 -15 0 -16 2 -3 10 8 5 11 10 7 10 -5 0 -5 5 -2 10 10 16
15 12 15 -10z m-330 -70 c0 -21 -19 -28 -21 -7 0 10 -2 10 -6 0 -8 -20 -23
-15 -23 7 0 15 7 20 25 20 18 0 25 -5 25 -20z m210 16 c0 -2 3 -11 6 -20 4
-12 0 -16 -15 -16 -14 0 -21 6 -21 20 0 11 7 20 15 20 8 0 15 -2 15 -4z m-102
-74 c2 -8 -2 -10 -15 -5 -16 6 -16 5 -4 -10 11 -15 11 -17 -2 -17 -15 0 -30
34 -19 45 9 9 35 1 40 -13z m-116 -77 c-5 -28 -12 -31 -30 -13 -17 17 -15 36
6 41 25 5 30 0 24 -28z m455 -65 c2 -52 4 -107 6 -122 l4 -28 -145 0 c-141 0
-144 0 -150 23 -6 19 -7 18 -14 -13 -6 -33 -1 133 6 193 2 15 4 32 5 37 1 7
51 10 144 8 l142 -3 2 -95z m-340 14 c8 -22 -18 -37 -36 -20 -7 8 -10 19 -7
25 10 16 36 13 43 -5z m-111 -73 c1 -24 -22 -40 -36 -25 -11 13 7 57 22 52 7
-3 14 -15 14 -27z m112 -74 c3 -26 2 -27 -22 -15 -28 12 -34 33 -13 41 21 9
32 1 35 -26z m-218 13 c0 -5 -2 -10 -4 -10 -3 0 -8 5 -11 10 -3 6 -1 10 4 10
6 0 11 -4 11 -10z m110 -76 c0 -25 -7 -28 -34 -18 -21 8 -20 31 1 43 23 12 33
5 33 -25z m444 -6 c17 -19 21 -229 4 -240 -15 -9 -232 -11 -267 -1 -23 6 -23
8 -19 89 2 46 1 84 -3 84 -5 0 -10 -42 -12 -92 -2 -79 -3 -73 -5 40 l-2 132
146 0 c103 0 149 -4 158 -12z m-336 -52 c5 -24 -10 -38 -31 -30 -20 7 -23 40
-4 47 19 8 32 2 35 -17z m-220 -3 c-5 -25 -28 -28 -28 -4 0 12 6 21 16 21 9 0
14 -7 12 -17z m110 -65 c-2 -15 -11 -24 -25 -26 -19 -3 -23 1 -23 22 0 21 5
26 26 26 21 0 25 -4 22 -22z m-110 -66 c3 -17 -2 -22 -17 -22 -14 0 -21 6 -21
18 0 38 33 41 38 4z m221 15 c15 -19 -10 -53 -33 -44 -19 7 -22 43 -3 50 20 9
24 8 36 -6z m-109 -83 c0 -22 3 -24 54 -24 35 0 60 -5 70 -15 16 -16 51 -21
42 -6 -3 5 1 12 10 15 21 8 235 6 254 -2 20 -9 22 -20 24 -147 l1 -110 -63 -9
c-37 -5 -99 -5 -152 0 -49 5 -102 6 -117 1 -28 -8 -184 -3 -255 9 -23 4 -38
12 -38 20 0 23 -18 16 -23 -8 -3 -13 -4 -6 -4 15 1 20 5 37 9 37 4 0 8 -4 8
-10 0 -5 5 -10 10 -10 6 0 4 13 -5 30 -9 17 -11 30 -5 30 6 0 10 24 10 55 0
32 4 55 11 55 5 0 7 5 4 10 -4 6 -11 8 -16 5 -5 -4 -9 -2 -9 2 0 21 28 33 77
33 49 0 53 2 53 24 0 15 7 26 18 29 25 5 32 -1 32 -29z m-126 -453 c4 -5 -3
-7 -14 -4 -23 6 -26 13 -6 13 8 0 17 -4 20 -9z m230 2 c-5 -5 -12 -12 -15 -16
-3 -5 -9 -2 -12 7 -5 12 0 16 15 16 12 0 17 -3 12 -7z m226 -10 c0 -15 -2 -15
-9 -4 -7 11 -10 10 -14 -5 -4 -16 -5 -16 -6 4 -1 13 5 22 14 22 8 0 15 -8 15
-17z m-345 -43 c3 -5 1 -10 -4 -10 -6 0 -11 5 -11 10 0 6 2 10 4 10 3 0 8 -4
11 -10z m215 -19 c0 -6 -4 -12 -8 -15 -5 -3 -9 1 -9 9 0 8 4 15 9 15 4 0 8 -4
8 -9z m243 -18 c-7 -2 -19 -2 -25 0 -7 3 -2 5 12 5 14 0 19 -2 13 -5z m-571
-31 c-7 -2 -12 -8 -12 -13 0 -6 5 -7 12 -3 7 5 8 3 3 -5 -10 -18 -27 2 -19 22
3 9 11 14 17 10 8 -5 7 -8 -1 -11z m673 -41 c-6 -5 -25 10 -25 20 0 5 6 4 14
-3 8 -7 12 -15 11 -17z"/>
<path d="M779 438 c4 -28 6 -29 9 -9 2 13 0 27 -5 32 -6 6 -7 -3 -4 -23z"/>
</g>
</svg>
